<svg xmlns="http://www.w3.org/2000/svg" width="132" height="68.178" viewBox="0 0 132 68.178">
  <g id="Group_2815" data-name="Group 2815" transform="translate(-875 -29.182)">
    <text id="Electric_Waves" data-name="Electric Waves" transform="translate(875 94.361)" fill="#5f41b6" font-size="13" font-family="Montserrat-SemiBold, Montserrat" font-weight="600" letter-spacing="0.2em"><tspan x="0" y="0">Electric Waves</tspan></text>
    <g id="Group_2823" data-name="Group 2823" transform="translate(861.633 -3808.142)">
      <g id="music-svgrepo-com" transform="translate(48 3837.324)">
        <path id="Path_1874" data-name="Path 1874" d="M81.81,19.708C81.81,8.825,30.588,0,19.705,0a19.7,19.7,0,1,0,0,39.41C30.588,39.413,81.81,30.59,81.81,19.708Z" transform="translate(0 -0.003)" fill="#4621ad"/>
        <g id="Group_2823-2" data-name="Group 2823" transform="translate(8.394 18.702)">
          <path id="Path_1875" data-name="Path 1875" d="M53.155,239.9a.638.638,0,0,1-.638.638H51.384a.638.638,0,0,1-.638-.638v-.691a.638.638,0,0,1,.638-.638h1.134a.638.638,0,0,1,.638.638Z" transform="translate(-50.746 -238.575)" fill="#fffbc9"/>
        </g>
        <g id="Group_2824" data-name="Group 2824" transform="translate(14.232 16.25)">
          <path id="Path_1877" data-name="Path 1877" d="M115.155,221.85a.638.638,0,0,1-.638.638h-1.134a.638.638,0,0,1-.638-.638v-5.633a.638.638,0,0,1,.638-.638h1.134a.638.638,0,0,1,.638.638Z" transform="translate(-112.746 -215.579)" fill="#fff790"/>
        </g>
        <g id="Group_2825" data-name="Group 2825" transform="translate(22.511 11.308)">
          <path id="Path_1879" data-name="Path 1879" d="M177.155,185.234a.638.638,0,0,1-.638.638h-1.134a.638.638,0,0,1-.638-.638V169.717a.638.638,0,0,1,.638-.638h1.134a.638.638,0,0,1,.638.638Z" transform="translate(-174.746 -169.079)" fill="#fcf15f"/>
        </g>
        <path id="Path_1881" data-name="Path 1881" d="M239.155,123.373c0,.2-.285.354-.638.354h-1.134c-.352,0-.638-.159-.638-.354v-15.94c0-.2.285-.354.638-.354h1.134c.352,0,.638.159.638.354Z" transform="translate(-205.956 -95.698)" fill="#fe0"/>
        <g id="Group_2826" data-name="Group 2826" transform="translate(39.069 14.603)">
          <path id="Path_1883" data-name="Path 1883" d="M301.155,209.645a.638.638,0,0,1-.638.638h-1.134a.638.638,0,0,1-.638-.638v-8.928a.638.638,0,0,1,.638-.638h1.134a.638.638,0,0,1,.638.638Z" transform="translate(-298.746 -200.079)" fill="#fcf15f"/>
        </g>
        <g id="Group_2827" data-name="Group 2827" transform="translate(47.348 16.25)">
          <path id="Path_1885" data-name="Path 1885" d="M363.155,221.846a.638.638,0,0,1-.638.638h-1.134a.638.638,0,0,1-.638-.638v-5.633a.638.638,0,0,1,.638-.638h1.134a.638.638,0,0,1,.638.638Z" transform="translate(-360.746 -215.575)" fill="#fff790"/>
        </g>
        <g id="Group_2828" data-name="Group 2828" transform="translate(53.187 18.716)">
          <path id="Path_1886" data-name="Path 1886" d="M425.155,240.09a.638.638,0,0,1-.638.638h-1.134a.638.638,0,0,1-.638-.638V239.4a.638.638,0,0,1,.638-.638h1.134a.638.638,0,0,1,.638.638Z" transform="translate(-422.746 -238.761)" fill="#fffbc9"/>
          <path id="Path_1887" data-name="Path 1887" d="M425.155,240.09a.638.638,0,0,1-.638.638h-1.134a.638.638,0,0,1-.638-.638V239.4a.638.638,0,0,1,.638-.638h1.134a.638.638,0,0,1,.638.638Z" transform="translate(-417.746 -238.761)" fill="#fffbc9"/>
        </g>
      </g>
    </g>
  </g>
</svg>
